<svg width="7" height="25" viewBox="0 0 7 25" fill="none" xmlns="http://www.w3.org/2000/svg">
<path d="M3.5 8.87097C5.43472 8.87097 7 10.494 7 12.5C7 14.506 5.43472 16.129 3.5 16.129C1.56528 16.129 0 14.506 0 12.5C0 10.494 1.56528 8.87097 3.5 8.87097ZM0 3.62903C0 5.63508 1.56528 7.25806 3.5 7.25806C5.43472 7.25806 7 5.63508 7 3.62903C7 1.62298 5.43472 0 3.5 0C1.56528 0 0 1.62298 0 3.62903ZM0 21.371C0 23.377 1.56528 25 3.5 25C5.43472 25 7 23.377 7 21.371C7 19.3649 5.43472 17.7419 3.5 17.7419C1.56528 17.7419 0 19.3649 0 21.371Z" fill="black"/>
</svg>
